<?xml version="1.0" encoding="UTF-8" standalone="no"?>
<!-- Created with Inkscape (http://www.inkscape.org/) -->

<svg
   width="56.590111mm"
   height="27.16028mm"
   viewBox="0 0 56.590111 27.16028"
   version="1.1"
   id="svg1"
   xml:space="preserve"
   inkscape:version="1.4.2 (ebf0e940d0, 2025-05-08)"
   sodipodi:docname="logo_ads.svg"
   inkscape:export-filename="logo_ads_p.svg"
   inkscape:export-xdpi="224.42084"
   inkscape:export-ydpi="224.42084"
   xmlns:inkscape="http://www.inkscape.org/namespaces/inkscape"
   xmlns:sodipodi="http://sodipodi.sourceforge.net/DTD/sodipodi-0.dtd"
   xmlns="http://www.w3.org/2000/svg"
   xmlns:svg="http://www.w3.org/2000/svg"><sodipodi:namedview
     id="namedview1"
     pagecolor="#ffffff"
     bordercolor="#000000"
     borderopacity="0.25"
     inkscape:showpageshadow="2"
     inkscape:pageopacity="0.0"
     inkscape:pagecheckerboard="0"
     inkscape:deskcolor="#d1d1d1"
     inkscape:document-units="mm"
     inkscape:zoom="1.4142136"
     inkscape:cx="245.36605"
     inkscape:cy="16.617009"
     inkscape:window-width="1280"
     inkscape:window-height="892"
     inkscape:window-x="0"
     inkscape:window-y="0"
     inkscape:window-maximized="1"
     inkscape:current-layer="layer2" /><defs
     id="defs1" /><g
     inkscape:groupmode="layer"
     id="layer2"
     inkscape:label="Camada 2"
     transform="translate(-56.878699,-91.74155)"><path
       id="path2"
       style="font-weight:bold;font-size:37.4573px;line-height:1;font-family:'Trebuchet MS';-inkscape-font-specification:'Trebuchet MS Bold';letter-spacing:0.664104px;fill:#5599ff;stroke-width:0;paint-order:markers stroke fill"
       d="m 89.04349,91.74194 c -0.982037,0 -3.382121,0.06788 -7.199789,0.2029 v 26.95695 h 4.787894 V 114.5379 96.124557 c 0.945209,-0.08592 1.675218,-0.129023 2.190787,-0.129023 5.364377,0 8.046763,2.884964 8.046763,8.654416 0,3.1548 -0.687437,5.60985 -2.062286,7.36524 -1.140024,1.46868 -2.64978,2.32292 -4.528806,2.56277 h -0.0026 c -1.160211,4e-5 -2.100737,0.94057 -2.100783,2.10078 -1e-4,1.14754 0.920613,2.08284 2.068008,2.10079 0.183715,-0.003 0.348831,-0.0268 0.52078,-0.0571 7.384634,-0.95621 11.077232,-5.74565 11.077232,-14.36784 0,-3.80539 -1.15397,-6.855753 -3.461759,-9.151263 C 96.08344,92.895532 92.971663,91.74155 89.043514,91.74155 Z m 1.231961,23.80318 c 0.626112,-5e-5 1.133688,0.50753 1.133632,1.13364 5e-5,0.62611 -0.507524,1.13368 -1.133632,1.13363 -0.625906,-2.4e-4 -1.133164,-0.50772 -1.133113,-1.13363 -5.6e-5,-0.62591 0.507204,-1.1334 1.133113,-1.13364 z"
       sodipodi:nodetypes="ccccccssccscccscccccccc"
       inkscape:export-filename="logo_ads.png"
       inkscape:export-xdpi="224.42084"
       inkscape:export-ydpi="224.42084" /><path
       id="text1"
       style="font-weight:bold;font-size:37.4573px;line-height:1;font-family:'Trebuchet MS';-inkscape-font-specification:'Trebuchet MS Bold';letter-spacing:0.664104px;fill:#5599ff;stroke-width:0;paint-order:markers stroke fill"
       d="M 68.371021,91.741687 56.878699,118.90179 h 6.326229 l 2.232938,-5.43223 h 5.489588 5.16e-4 c 1.005039,-1.4e-4 1.819671,-0.815 1.819528,-1.82004 -1.39e-4,-1.00484 -0.814688,-1.81939 -1.819528,-1.81953 h -5.16e-4 -3.869532 l 3.852995,-9.895005 3.852478,9.895005 1.663981,3.63957 2.341976,5.43223 h 6.282821 L 73.450814,91.741687 Z m 2.556949,18.925973 c 0.542259,1e-5 0.981843,0.4396 0.981853,0.98186 -1.6e-5,0.54226 -0.439598,0.98184 -0.981853,0.98185 -0.542255,-1e-5 -0.981836,-0.43959 -0.981852,-0.98185 1e-5,-0.54226 0.439593,-0.98185 0.981852,-0.98186 z"
       sodipodi:nodetypes="cccccsssccccccccccscsc" /><path
       id="path7"
       style="font-weight:bold;font-size:37.4573px;line-height:1;font-family:'Trebuchet MS';-inkscape-font-specification:'Trebuchet MS Bold';letter-spacing:0.664104px;fill:#5599ff;stroke-width:0;paint-order:markers stroke fill"
       d="m 109.48966,92.157122 c -1.10603,-0.277176 -2.40882,-0.415438 -3.90874,-0.415439 -2.33057,1e-6 -4.24293,0.669162 -5.736886,2.007758 -1.482015,1.338589 -2.223112,3.024 -2.223112,5.055794 0,1.087609 0.185072,2.079535 0.555574,2.975925 0.382455,0.89639 0.920439,1.67336 1.613637,2.33069 0.705147,0.64539 2.061897,1.47582 4.069787,2.49171 2.01984,1.00394 3.3524,1.91245 3.99779,2.72517 0.6454,0.81271 0.96809,1.66722 0.9681,2.56361 -1e-5,1.91228 -1.36834,2.86815 -4.10529,2.86814 -1.62866,0 -3.28251,-0.53969 -4.961136,-1.61932 -0.01049,-0.008 -0.02105,-0.0152 -0.03166,-0.0226 -1.018443,-0.71588 -2.424333,-0.47022 -3.140315,0.54874 -0.716216,1.01933 -0.470739,2.42635 0.548217,3.14227 0.0044,0.003 2.979434,2.09224 7.064694,2.09226 2.82061,0 5.06768,-0.68733 6.74091,-2.06177 1.68519,-1.37445 2.52758,-3.12527 2.52758,-5.25267 -1e-5,-1.18322 -0.20316,-2.2529 -0.60952,-3.20905 -0.40637,-0.96808 -0.99799,-1.81043 -1.77485,-2.52754 -0.77686,-0.72905 -2.04377,-1.52392 -3.80066,-2.38445 -3.33454,-1.62544 -5.00178,-3.19101 -5.00178,-4.696924 0,-0.908332 0.29313,-1.643376 0.87876,-2.205103 0.59758,-0.573686 1.43406,-0.860872 2.50972,-0.860871 1.46534,-10e-7 2.87266,0.381104 4.22137,1.143172 0.006,0.0041 0.0111,0.0082 0.0167,0.01232 0.93726,0.65929 2.23138,0.431947 2.8902,-0.507736 0.65864,-0.939237 0.43318,-2.234703 -0.50362,-2.89382 -0.0392,-0.02661 -0.0793,-0.05188 -0.12024,-0.07574 0.0139,0.0078 0.0285,0.01415 0.0421,0.02283 -0.71214,-0.554353 -1.62121,-0.970121 -2.72724,-1.247298 z m 1.8568,1.906596 c 0.14349,0.0319 0.27925,0.0918 0.39956,0.176283 0.50583,0.35572 0.62744,1.055208 0.27157,1.562064 -0.35568,0.506776 -1.05386,0.629151 -1.55939,0.273324 -0.50557,-0.355655 -0.6272,-1.054777 -0.2717,-1.561575 0.26044,-0.371112 0.71826,-0.548755 1.15996,-0.450096 z"
       sodipodi:nodetypes="sscscccscsccssscscccscsccccccsscccccc" /><path
       id="path12"
       style="font-weight:bold;font-size:37.4573px;line-height:1;font-family:'Trebuchet MS';-inkscape-font-specification:'Trebuchet MS Bold';letter-spacing:0.664104px;fill:#6600ff;stroke-width:0;paint-order:markers stroke fill"
       d="m 59.279297,117.31445 h 2.859375 c 0.743575,-1.8079 1.486461,-3.6161 2.230469,-5.42383 2.239572,-0.0867 2.908777,0.13449 5.113346,-0.11523 0.154828,-0.52671 -0.533009,-0.26594 -0.801118,-0.35291 -0.857688,0.0901 -1.311072,-0.005 -2.355197,-0.003 -0.828612,-0.13912 -1.340153,-1.13169 -0.877406,-1.85866 1.842598,-4.65619 3.634457,-9.32429 5.457484,-13.988994 2.412983,6.000464 4.540745,12.096404 7.271343,17.962694 0.551672,1.25654 1.089483,2.51972 1.634907,3.77949 h 2.925781 c -1.131299,-2.19111 -1.969306,-4.52527 -2.982023,-6.77422 L 72.402344,93.329638 H 69.425781 L 59.279297,117.31401 Z m 26.519531,-23.9082 c -0.811204,0.02567 -1.622395,0.05214 -2.433594,0.07813 -0.01337,7.70532 0.02673,15.41333 -0.02003,23.11697 -0.232733,0.73759 0.06376,1.05259 0.820027,0.89671 0.848933,0.23474 0.959598,-0.26879 0.842578,-1 V 94.701177 c 3.194194,-0.353533 6.727055,-0.61318 9.559489,1.203936 2.823434,1.754453 3.91553,5.250617 3.918463,8.419897 0.09571,3.54924 -0.718624,7.43653 -3.448942,9.9148 -0.644511,0.64792 -1.534143,1.10377 -2.288775,1.49848 0.283288,0.29915 -0.0188,1.28025 0.505903,1.0085 1.719937,-0.57213 3.32428,-1.60281 4.501025,-2.97472 2.266198,-2.98871 2.695418,-6.87718 2.511918,-10.54687 -0.24997,-1.0685 0.33705,-0.47877 0.84154,-0.0526 2.66177,1.97521 6.21623,2.78144 8.26265,5.54808 1.5003,1.93627 1.46488,5.24519 -0.73631,6.65623 -2.38768,1.45352 -5.45672,1.13395 -7.92969,0.0762 -1.003913,-0.40107 -1.878117,-1.28868 -3.019536,-1.19334 0.06821,0.51851 -0.0079,1.19987 0.623047,1.39257 3.139099,1.87243 7.277799,2.28815 10.597659,0.64063 1.90641,-0.94515 3.181,-3.03281 2.97282,-5.1756 -0.1003,-2.18647 -1.45304,-4.21304 -3.40058,-5.19812 -2.52907,-1.49255 -5.58648,-2.51807 -7.21613,-5.13382 -1.309365,-2.169432 -0.24387,-5.31705 2.12989,-6.226292 1.60019,-0.727838 3.47957,-0.449099 5.08041,-0.03961 -0.0613,-0.360262 0.71627,-0.91547 0.10952,-0.930474 -1.85404,-0.283689 -3.82913,-0.472835 -5.63687,0.143365 -1.87704,0.653702 -3.401249,2.275763 -3.739519,4.261841 -0.08567,1.079985 -0.575556,-0.112405 -0.917614,-0.474052 -1.368905,-1.964723 -3.514984,-3.286098 -5.784705,-3.794582 -2.192123,-0.570189 -4.468728,-0.351562 -6.704647,-0.319379 z m -2.642578,25.0918 c 0.461999,0.0221 -0.140271,-0.68429 0,0 z"
       sodipodi:nodetypes="ccccccccccccccccscccccccccccccccccccccccccccccsscc" /></g></svg>
